{"asset":{"version":"2.0","generator":"Blockbench 4.9.3 glTF exporter"},"scenes":[{"nodes":[2],"name":"blockbench_export"}],"scene":0,"nodes":[{"name":"cuboid","mesh":0},{"name":"bone","children":[0]},{"children":[1]}],"bufferViews":[{"buffer":0,"byteOffset":0,"byteLength":288,"target":34962,"byteStride":12},{"buffer":0,"byteOffset":288,"byteLength":288,"target":34962,"byteStride":12},{"buffer":0,"byteOffset":576,"byteLength":192,"target":34962,"byteStride":8},{"buffer":0,"byteOffset":768,"byteLength":72,"target":34963},{"buffer":0,"byteOffset":840,"byteLength":56},{"buffer":0,"byteOffset":896,"byteLength":224},{"buffer":0,"byteOffset":1120,"byteLength":48},{"buffer":0,"byteOffset":1168,"byteLength":144}],"buffers":[{"byteLength":1312,"uri":"data:application/octet-stream;base64,"}],"accessors":[{"bufferView":0,"componentType":5126,"count":24,"max":[0.25,0.5,0.25],"min":[-0.25,0,-0.25],"type":"VEC3"},{"bufferView":1,"componentType":5126,"count":24,"max":[1,0.936329185962677,1],"min":[-1,-1,-1],"type":"VEC3"},{"bufferView":2,"componentType":5126,"count":24,"max":[0.5,0.5],"min":[0,0],"type":"VEC2"},{"bufferView":3,"componentType":5123,"count":36,"max":[23],"min":[0],"type":"SCALAR"},{"bufferView":4,"componentType":5126,"count":14,"max":[0.4583333432674408],"min":[0],"type":"SCALAR"},{"bufferView":5,"componentType":5126,"count":14,"max":[0,1,0,1],"min":[0,-0.7071067690849304,0,-1],"type":"VEC4"},{"bufferView":6,"componentType":5126,"count":12,"max":[0.4583333432674408],"min":[0],"type":"SCALAR"},{"bufferView":7,"componentType":5126,"count":12,"max":[0,0.625,0],"min":[0,0,0],"type":"VEC3"}],"materials":[{"pbrMetallicRoughness":{"metallicFactor":0,"roughnessFactor":1},"alphaMode":"MASK","alphaCutoff":0.05,"doubleSided":true}],"meshes":[{"primitives":[{"mode":4,"attributes":{"POSITION":0,"NORMAL":1,"TEXCOORD_0":2},"indices":3,"material":0}]}],"animations":[{"name":"animation","samplers":[{"input":4,"output":5,"interpolation":"LINEAR"},{"input":6,"output":7,"interpolation":"LINEAR"}],"channels":[{"sampler":0,"target":{"node":1,"path":"rotation"}},{"sampler":1,"target":{"node":1,"path":"translation"}}]}]}